<svg width="488" height="159" viewBox="0 0 488 159" fill="none" xmlns="http://www.w3.org/2000/svg">
<path d="M219.468 82.4444C219.418 82.9374 219.5 83.5105 219.59 84.079C219.676 84.6297 219.819 85.1712 220.094 85.6661C220.344 86.1162 220.452 86.1041 220.909 86.0686C221.017 86.0603 221.124 86.0109 221.226 85.9689C222.069 85.626 222.688 85.0314 223.145 84.2532C223.579 83.5096 223.883 82.7118 224.131 81.8908C224.351 81.1611 224.53 80.4202 224.655 79.6691C224.765 79.0102 224.859 78.3457 224.9 77.6794C224.957 76.7447 224.78 75.8305 224.54 74.9284C224.311 74.0719 223.787 73.4923 222.947 73.2015C222.861 73.1717 222.773 73.14 222.685 73.112C222.596 73.0831 222.508 73.0496 222.418 73.0337C222.1 72.9788 221.984 73.0319 221.849 73.3338C221.453 74.2164 221.068 75.1026 220.679 75.988C220.522 76.3449 220.36 76.7 220.271 77.083C220.038 78.0774 219.775 79.0633 219.654 80.0819C219.564 80.8396 219.458 81.5926 219.468 82.4444ZM265.515 81.5479C265.551 81.9896 265.603 82.3959 265.613 82.8041C265.635 83.7742 265.794 84.7267 265.988 85.6726C266.092 86.1823 266.268 86.6716 266.567 87.1115C266.722 87.3398 266.929 87.4777 267.168 87.5896C267.282 87.6417 267.389 87.6306 267.481 87.5551C267.697 87.3799 267.922 87.2121 268.116 87.0146C268.602 86.5188 268.979 85.9428 269.285 85.3222C269.705 84.4723 270.124 83.6214 270.517 82.7584C270.77 82.2011 270.983 81.6243 271.199 81.0511C271.488 80.286 271.731 79.5032 272.055 78.7539C272.214 78.3886 272.252 78.0382 272.194 77.671C272.128 77.2507 272.054 76.8267 271.88 76.4316C271.807 76.262 271.731 76.0905 271.633 75.9339C271.18 75.2191 270.553 74.7187 269.76 74.4167C269.178 74.194 268.637 74.2574 268.114 74.5854C267.699 74.8464 267.348 75.1679 267.078 75.5816C266.69 76.1771 266.38 76.8109 266.108 77.4632C265.936 77.8742 265.829 78.3085 265.747 78.7483C265.572 79.6849 265.658 80.6402 265.515 81.5479ZM186.244 83.2067C186.084 83.2067 185.936 83.1946 185.79 83.2086C185.181 83.2682 184.573 83.3493 183.963 83.3959C183.297 83.4462 182.635 83.5338 181.972 83.6205C180.976 83.7519 179.999 83.9625 179.048 84.2793C178.538 84.4499 178.034 84.6447 177.547 84.8721C176.606 85.311 175.875 85.9783 175.472 86.9558C175.119 87.816 174.96 88.6986 175.198 89.624C175.366 90.2782 175.587 90.91 176.031 91.4291C176.738 92.2557 177.538 92.9733 178.528 93.4514C179.268 93.8093 180.049 94.0301 180.859 94.1718C181.623 94.306 182.337 94.1923 183.011 93.8232C183.996 93.2827 184.781 92.5279 185.34 91.5549C186.215 90.0312 186.771 88.4134 186.704 86.6259C186.686 86.1805 186.709 85.7294 186.655 85.2886C186.581 84.6819 186.451 84.0818 186.34 83.4797C186.324 83.3921 186.282 83.3101 186.244 83.2067M200.033 76.4194C200.14 76.3561 200.205 76.3197 200.266 76.2806C201.258 75.6534 202.218 74.9824 203.132 74.2462C203.973 73.5668 204.751 72.8175 205.47 72.0096C206.561 70.7831 207.517 69.4542 208.329 68.0274C208.714 67.3499 209.052 66.6416 209.368 65.9287C209.973 64.5653 210.379 63.1357 210.683 61.6773C210.87 60.7845 211 59.8852 210.966 58.9672C210.951 58.5749 210.922 58.1872 210.824 57.8069C210.675 57.2292 210.471 56.6756 210.159 56.1602C209.62 55.2684 208.77 55.0167 207.817 55.0531C207.136 55.0792 206.53 55.3634 205.976 55.7763C205.245 56.3215 204.704 57.0241 204.215 57.7753C203.633 58.6681 203.213 59.641 202.837 60.6335C202.29 62.0771 201.834 63.5504 201.508 65.0592C201.292 66.0573 201.082 67.0582 200.921 68.0656C200.73 69.2566 200.591 70.456 200.434 71.6517C200.385 72.0198 200.346 72.3898 200.308 72.7588C200.244 73.3674 200.182 73.9769 200.123 74.5863C200.09 74.919 200.054 75.2517 200.036 75.5844C200.022 75.8426 200.033 76.1026 200.033 76.4194M249.452 76.4278C249.492 76.4278 249.514 76.4344 249.529 76.4269C249.612 76.385 249.695 76.344 249.772 76.2955C250.692 75.7205 251.524 75.0327 252.31 74.2909C253.04 73.6013 253.746 72.8837 254.454 72.1698C254.861 71.7607 255.272 71.3525 255.648 70.9155C256.569 69.8428 257.486 68.7646 258.377 67.6668C259.977 65.6929 261.311 63.5458 262.425 61.2635C262.898 60.2952 263.297 59.2915 263.566 58.2431C263.889 56.9831 263.958 55.712 263.732 54.4287C263.531 53.2834 262.827 52.5378 261.814 52.0569C261.39 51.8556 260.92 51.7736 260.457 51.8025C259.92 51.8361 259.395 51.9572 258.904 52.2088C257.977 52.6841 257.199 53.343 256.538 54.1342C255.735 55.0941 255.055 56.1397 254.504 57.2636C253.848 58.6 253.263 59.9672 252.763 61.3697C251.862 63.8934 251.162 66.4748 250.543 69.0777C250.337 69.9444 250.159 70.8195 250.008 71.6974C249.869 72.5016 249.682 73.2984 249.621 74.1167C249.587 74.5789 249.49 75.0365 249.451 75.4978C249.424 75.8053 249.368 76.1203 249.452 76.4278ZM276.268 75.194C276.349 75.1474 276.399 75.1278 276.437 75.0933C277.118 74.4866 277.811 73.8921 278.473 73.2649C279.203 72.5734 279.905 71.8521 280.618 71.1429C281.953 69.8167 283.267 68.472 284.503 67.0517C285.775 65.5904 287.02 64.1087 288.186 62.5617C289.362 60.9997 290.516 59.422 291.469 57.7091C292.342 56.1397 293.022 54.4949 293.441 52.7466C293.58 52.1678 293.642 51.5761 293.727 50.9871C293.818 50.3655 293.782 49.7616 293.658 49.1596C293.549 48.6405 293.304 48.1866 292.918 47.8092C292.356 47.2612 291.684 46.9984 290.908 46.9677C290.476 46.9509 290.057 47.0357 289.642 47.1373C288.857 47.3283 288.14 47.6759 287.456 48.099C286.302 48.8138 285.356 49.7644 284.482 50.7849C283.681 51.7214 283.029 52.7661 282.431 53.8416C281.527 55.4725 280.779 57.1751 280.175 58.9392C279.183 61.8422 278.298 64.7778 277.667 67.7842C277.411 69.0013 277.159 70.2203 276.919 71.4411C276.73 72.4075 276.56 73.3776 276.388 74.3459C276.339 74.6162 276.31 74.8902 276.268 75.194ZM188.027 80.4668C189.218 80.3205 190.389 80.1388 191.546 79.8862C193.518 79.4557 195.893 78.5685 197.397 77.8239C197.406 77.7335 197.423 77.6263 197.428 77.5173C197.47 76.7372 197.498 75.9563 197.553 75.1763C197.613 74.3235 197.685 73.4708 197.775 72.6209C197.854 71.8828 197.965 71.1475 198.064 70.4113C198.143 69.8223 198.223 69.2333 198.305 68.6444C198.494 67.2819 198.749 65.9315 199.043 64.5877C199.438 62.7844 199.998 61.0324 200.662 59.3139C201.215 57.8824 201.922 56.5339 202.893 55.3364C203.568 54.5042 204.34 53.781 205.283 53.261C205.889 52.9264 206.534 52.7251 207.226 52.6114C208.061 52.4744 208.859 52.5919 209.65 52.8006C210.66 53.0672 211.444 53.6897 212.06 54.52C212.714 55.4026 213.082 56.4091 213.321 57.4742C213.441 58.0064 213.418 58.5478 213.501 59.0809C213.526 59.2421 213.487 59.4136 213.475 59.5804C213.465 59.7109 213.44 59.8404 213.441 59.97C213.444 60.682 213.303 61.3772 213.163 62.0677C212.831 63.7126 212.349 65.3127 211.698 66.8606C211.089 68.307 210.325 69.6685 209.442 70.9639C208.388 72.5091 207.181 73.9219 205.818 75.2023C204.782 76.1744 203.648 77.0187 202.478 77.8164C201.738 78.3197 200.984 78.7977 200.195 79.2199C199.994 79.328 199.886 79.4464 199.892 79.6933C199.912 80.4379 199.856 81.1881 199.928 81.9272C199.999 82.668 199.958 83.4164 200.09 84.1526C200.139 84.4247 200.123 84.709 200.137 85.01C200.309 84.873 200.343 84.6838 200.411 84.5198C200.754 83.695 201.131 82.8852 201.533 82.0874C202.149 80.8675 202.898 79.7353 203.779 78.6943C204.593 77.7325 205.545 76.9339 206.703 76.4064C207.115 76.2191 207.543 76.1268 207.997 76.1156C208.939 76.0914 209.643 76.5089 210.181 77.2451C210.678 77.9254 210.933 78.7008 210.961 79.5368C210.987 80.3168 210.965 81.0949 210.884 81.8778C210.776 82.8954 210.603 83.9028 210.493 84.9186C210.424 85.5645 210.295 86.2038 210.205 86.8468C210.144 87.2895 210.106 87.734 210.057 88.1776C209.996 88.7125 209.935 89.2475 209.873 89.7833C209.87 89.8197 209.865 89.8569 209.863 89.8942C209.788 91.512 209.665 93.1299 209.748 94.7505C209.775 95.2892 209.86 95.8232 209.999 96.345C210.018 96.4159 210.062 96.4792 210.105 96.5696C210.325 96.427 210.438 96.2183 210.561 96.0179C211.023 95.2715 211.37 94.4681 211.72 93.6667C212.483 91.9249 213.016 90.103 213.617 88.3043C214.283 86.3119 214.906 84.3045 215.589 82.3176C216.309 80.2254 217.089 78.1538 217.91 76.0979C217.993 75.891 218.058 75.6776 218.125 75.4652C218.539 74.1288 219.058 72.8362 219.714 71.5995C219.835 71.3703 219.978 71.1475 220.143 70.9481C220.489 70.5306 220.923 70.333 221.48 70.4709C221.638 70.5101 221.817 70.5362 221.973 70.5045C222.436 70.4122 222.903 70.4514 223.365 70.4113C224.181 70.3395 225.002 70.3414 225.816 70.2734C226.467 70.2193 227.12 70.2408 227.766 70.1765C228.658 70.0879 229.553 70.1205 230.443 70.0534C230.926 70.0162 231.406 69.9714 231.89 69.9798C232.565 69.9919 233.065 70.3777 233.26 71.0096C233.334 71.2491 233.331 71.4867 233.265 71.7244C233.22 71.8856 233.172 72.0468 233.11 72.2015C232.816 72.9284 232.635 73.688 232.448 74.4466C232.191 75.4931 231.933 76.5397 231.707 77.5927C231.496 78.5741 231.329 79.5638 231.162 80.5535C231.007 81.477 230.948 82.3996 230.963 83.3316C230.968 83.6857 230.999 84.037 231.141 84.3688C231.283 84.4145 231.344 84.3026 231.406 84.2206C231.802 83.7006 232.144 83.1452 232.441 82.5646C233.399 80.6914 234.36 78.8201 235.301 76.9376C236.133 75.2732 236.937 73.5938 237.758 71.9229C237.971 71.4886 238.191 71.0571 238.423 70.6322C238.566 70.3722 238.724 70.1187 238.896 69.8764C239.138 69.5371 239.497 69.348 239.895 69.3396C240.385 69.3293 240.921 69.5763 241.16 70.183C241.31 70.5632 241.283 70.9546 241.222 71.3404C240.988 72.8278 240.635 74.2919 240.318 75.7634C240.044 77.0345 239.75 78.3019 239.503 79.5787C239.342 80.4165 239.248 81.2683 239.125 82.1135C239.002 82.9607 238.957 83.8152 238.88 84.6661C238.785 85.7285 238.774 86.789 238.823 87.8468C238.874 88.9604 239.011 90.0694 239.363 91.1383C239.451 91.4039 239.545 91.6667 239.728 91.8867C239.812 91.9873 239.928 92.0172 240.019 91.9286C240.245 91.7096 240.485 91.4962 240.671 91.2446C240.99 90.8103 241.283 90.3555 241.565 89.8952C242.052 89.1021 242.494 88.2829 242.886 87.4367C243.276 86.5924 243.695 85.7611 244.079 84.9131C244.817 83.2868 245.539 81.6522 246.267 80.0214C246.313 79.9198 246.343 79.8089 246.398 79.7138C246.732 79.1491 246.797 78.5228 246.82 77.8872C246.83 77.59 246.821 77.2908 246.842 76.9935C246.9 76.2154 246.946 75.4363 247.031 74.66C247.099 74.0309 247.163 73.4028 247.274 72.7803C247.404 72.0487 247.539 71.3181 247.664 70.5856C247.955 68.8792 248.397 67.2073 248.852 65.541C249.479 63.2448 250.149 60.9597 251.081 58.7631C251.598 57.5469 252.109 56.328 252.781 55.1854C253.626 53.7512 254.58 52.3999 255.847 51.2984C256.639 50.6097 257.501 50.0291 258.497 49.6731C259.167 49.4336 259.861 49.291 260.572 49.304C261.999 49.331 263.268 49.7905 264.343 50.7485C265.122 51.4437 265.725 52.2601 266.031 53.2675C266.189 53.7838 266.314 54.3076 266.322 54.8546C266.327 55.1696 266.397 55.4846 266.394 55.7986C266.377 57.3568 266.082 58.8619 265.54 60.3232C264.93 61.9708 264.132 63.5243 263.233 65.0285C262.457 66.3239 261.63 67.5848 260.695 68.7711C260.119 69.5017 259.528 70.2221 258.924 70.9304C258.198 71.7794 257.471 72.6293 256.706 73.4429C255.788 74.4195 254.86 75.3915 253.842 76.2675C253.263 76.7652 252.688 77.2694 252.083 77.7335C251.254 78.369 250.359 78.904 249.374 79.2926C249.247 79.4864 249.227 79.7064 249.227 79.931C249.227 80.9002 249.187 81.8712 249.236 82.8376C249.286 83.805 249.251 84.777 249.341 85.7387C249.411 86.4796 249.415 87.2233 249.5 87.9642C249.581 88.6846 249.654 89.4059 249.767 90.1216C249.906 91.0023 250.065 91.8811 250.322 92.7366C250.494 93.3116 250.747 93.8475 251.092 94.3405C251.325 94.6722 251.631 94.8968 252.007 95.0431C252.394 95.1932 252.775 95.1745 253.143 95.0031C253.466 94.853 253.748 94.6377 254.008 94.3945C254.471 93.9602 254.89 93.4887 255.248 92.9612C256.063 91.7581 256.838 90.5326 257.523 89.2484C258.391 87.6231 259.298 86.0183 260.108 84.3623C260.534 83.4928 260.95 82.6186 261.375 81.7492C261.973 80.5293 262.565 79.3066 263.183 78.0969C263.347 77.7791 263.467 77.4539 263.577 77.1184C263.976 75.9078 264.541 74.7746 265.314 73.7607C266.012 72.8455 266.947 72.2444 268.047 71.9182C268.897 71.6657 269.738 71.7654 270.563 72.0589C271.812 72.5035 272.822 73.2602 273.582 74.3496C273.614 74.3962 273.647 74.44 273.683 74.4838C273.694 74.4978 273.712 74.5053 273.729 74.5164C273.841 74.4931 273.856 74.3981 273.869 74.3105C274.176 72.3078 274.585 70.3246 274.975 68.3378C275.471 65.816 276.173 63.351 276.902 60.8916C277.383 59.2682 277.932 57.6681 278.576 56.1015C279.336 54.2544 280.241 52.4838 281.35 50.8203C282.127 49.6535 283.009 48.5734 284.036 47.6163C285.009 46.7105 286.068 45.9267 287.274 45.3536C288.085 44.9696 288.927 44.7059 289.818 44.5652C290.358 44.4804 290.897 44.4543 291.43 44.5037C292.431 44.595 293.348 44.9491 294.142 45.5754C295.123 46.3489 295.814 47.3209 296.093 48.5529C296.178 48.9313 296.233 49.3217 296.258 49.7094C296.341 51.0598 296.131 52.3831 295.793 53.6832C295.313 55.5293 294.577 57.273 293.647 58.9392C292.737 60.5701 291.653 62.0817 290.545 63.5784C289.625 64.8207 288.668 66.035 287.666 67.212C287.062 67.9212 286.446 68.6192 285.826 69.3135C283.773 71.607 281.551 73.7318 279.347 75.8733C278.397 76.7959 277.357 77.6188 276.223 78.3066C275.878 78.5163 275.736 78.7856 275.709 79.1603C275.667 79.7353 275.621 80.3093 275.572 80.8834C275.514 81.5497 275.449 82.216 275.39 82.8824C275.381 82.9746 275.379 83.0678 275.376 83.161C275.321 84.763 275.293 86.3669 275.381 87.967C275.46 89.3994 275.655 90.8196 276.247 92.1486C276.36 92.402 276.503 92.6443 276.66 92.8736C276.763 93.0255 276.906 93.1532 277.047 93.2734C277.192 93.3983 277.367 93.4011 277.502 93.2641C277.696 93.0665 277.881 92.855 278.041 92.6294C278.379 92.156 278.596 91.6202 278.807 91.0824C278.888 90.8737 278.951 90.6565 279.05 90.458C279.254 90.0526 279.563 89.7833 280.04 89.7423C280.546 89.6994 280.962 89.8476 281.244 90.2838C281.473 90.6388 281.461 91.0312 281.354 91.4161C281.281 91.6835 281.167 91.9417 281.058 92.1979C280.702 93.0413 280.296 93.8549 279.724 94.5781C279.43 94.949 279.078 95.2491 278.679 95.4914C277.604 96.1409 276.45 96.0133 275.469 95.2081C275.035 94.8512 274.658 94.4364 274.369 93.9518C274.045 93.4067 273.773 92.8354 273.586 92.2268C273.333 91.4086 273.144 90.5745 273.026 89.7274C272.956 89.2307 272.916 88.7284 272.891 88.2279C272.846 87.3165 272.808 86.4051 272.793 85.4936C272.784 84.9382 272.822 84.3809 272.842 83.7668C272.738 83.9653 272.652 84.12 272.574 84.2775C272.16 85.1116 271.748 85.9456 271.334 86.7797C270.967 87.5206 270.452 88.158 269.909 88.7731C269.562 89.1673 269.143 89.4851 268.691 89.7479C267.882 90.2176 267.039 90.2651 266.177 89.8886C265.457 89.5755 264.883 89.0946 264.448 88.4376C263.956 87.6958 263.66 86.8794 263.497 86.0127C263.374 85.3557 263.278 84.6931 263.169 84.0333C263.164 83.9979 263.144 83.9653 263.114 83.8889C262.996 84.1256 262.882 84.3325 262.787 84.5468C262.142 85.9941 261.375 87.3789 260.629 88.7731C260.119 89.7246 259.604 90.6742 259.068 91.6118C258.404 92.7767 257.686 93.9118 256.861 94.9695C256.229 95.7794 255.502 96.5035 254.616 97.0477C254.051 97.3953 253.439 97.5854 252.774 97.6208C251.203 97.7038 250.005 97.0207 249.079 95.8101C248.543 95.1093 248.181 94.3144 247.93 93.4672C247.627 92.4486 247.42 91.4114 247.274 90.3611C247.167 89.5885 247.073 88.8141 246.974 88.0406C246.967 87.9847 246.966 87.9288 246.963 87.8729C246.918 87.0183 246.873 86.1637 246.826 85.3091C246.823 85.2588 246.81 85.2085 246.792 85.0948C246.683 85.3091 246.598 85.4703 246.518 85.6353C245.877 86.9586 245.254 88.2913 244.593 89.6044C243.964 90.8532 243.237 92.0451 242.363 93.142C241.962 93.6471 241.466 94.0255 240.872 94.2864C239.795 94.7598 238.533 94.3787 237.837 93.5399C237.55 93.1942 237.317 92.8121 237.153 92.3937C236.868 91.664 236.682 90.9072 236.547 90.1356C236.28 88.6221 236.299 87.0966 236.321 85.5701C236.334 84.6391 236.442 83.7155 236.522 82.7892C236.583 82.066 236.709 81.3522 236.788 80.6318C236.831 80.2441 236.918 79.862 236.98 79.4771C236.988 79.4259 236.971 79.3699 236.958 79.2423C236.658 79.8294 236.38 80.3531 236.12 80.8853C235.441 82.2738 234.747 83.6531 233.934 84.9708C233.599 85.5132 233.192 85.9932 232.729 86.4312C232.263 86.871 231.709 87.1096 231.08 87.1683C230.781 87.1963 230.49 87.1189 230.212 87.0052C229.687 86.7918 229.319 86.4088 229.051 85.9223C228.723 85.3259 228.577 84.6745 228.496 84.0054C228.467 83.7658 228.449 83.5245 228.428 83.284C228.42 83.1918 228.411 83.0977 228.417 83.0054C228.45 82.4108 228.464 81.8135 228.531 81.2226C228.601 80.5964 228.723 79.9748 228.821 79.3513C229.091 77.6608 229.477 75.9964 229.899 74.3384C230.022 73.852 230.147 73.3664 230.264 72.8781C230.284 72.7942 230.275 72.7038 230.28 72.5864C230.16 72.5771 230.07 72.5622 229.981 72.565C229.461 72.5799 228.941 72.5752 228.42 72.6377C227.942 72.6955 227.452 72.6712 226.969 72.6871C226.766 72.6936 226.56 72.6759 226.328 72.7532C226.357 72.8343 226.371 72.9014 226.403 72.9592C226.907 73.8883 227.162 74.8892 227.302 75.9302C227.388 76.562 227.403 77.1911 227.394 77.8239C227.383 78.5517 227.272 79.2702 227.15 79.9831C226.923 81.3046 226.585 82.5991 226.106 83.8535C225.69 84.9419 225.144 85.9568 224.335 86.8039C223.55 87.6268 222.613 88.2317 221.5 88.5047C220.957 88.638 220.389 88.624 219.838 88.4982C219.085 88.3267 218.563 87.8281 218.126 87.2298C217.726 86.6819 217.49 86.0547 217.318 85.4023C217.308 85.3669 217.296 85.3315 217.271 85.2485C217.204 85.4275 217.145 85.5701 217.098 85.7145C216.359 87.9577 215.622 90.2008 214.883 92.443C214.474 93.6825 213.951 94.8763 213.391 96.0515C213.055 96.7551 212.681 97.4484 212.179 98.0542C211.965 98.3105 211.73 98.5528 211.48 98.7736C211.077 99.1287 210.597 99.3384 210.061 99.3561C209.544 99.3738 209.073 99.2135 208.673 98.8706C208.207 98.4717 207.891 97.9768 207.701 97.3981C207.446 96.6162 207.28 95.812 207.266 94.9919C207.245 93.7067 207.27 92.4207 207.276 91.1356C207.413 90.4385 207.331 89.7246 207.453 89.0238C207.539 88.5308 207.542 88.0238 207.599 87.5253C207.679 86.8422 207.77 86.1609 207.864 85.4797C207.954 84.8366 208.054 84.1945 208.146 83.5506C208.215 83.0725 208.296 82.5953 208.34 82.1154C208.409 81.3559 208.53 80.6001 208.481 79.8331C208.456 79.4389 208.377 79.0605 208.16 78.7213C208.104 78.6318 208.017 78.5927 207.922 78.6244C207.764 78.6766 207.603 78.7325 207.46 78.8145C206.843 79.1696 206.296 79.6094 205.821 80.1472C204.624 81.505 203.778 83.0744 203.052 84.7136C202.599 85.7341 202.179 86.7695 201.871 87.8449C201.615 88.7377 201.372 89.6351 201.123 90.5298C201.043 90.8168 200.973 91.1067 200.877 91.3872C200.759 91.732 200.553 92.0078 200.222 92.1905C199.372 92.6583 198.475 92.1476 198.318 91.3201C198.235 90.8821 198.164 90.4413 198.111 89.9986C198.049 89.4823 198.017 88.9623 197.965 88.4441C197.908 87.871 197.841 87.2988 197.782 86.7266C197.74 86.3193 197.694 85.913 197.663 85.5058C197.61 84.7817 197.59 84.0557 197.513 83.3344C197.424 82.4798 197.426 81.6243 197.401 80.7688C197.4 80.7343 197.378 80.7007 197.361 80.6541C197.188 80.6094 197.045 80.7212 196.902 80.7809C195.957 81.1742 194.989 81.5041 194.015 81.8116C193.04 82.1182 192.047 82.3586 191.038 82.5227C190.36 82.6326 189.682 82.7445 189.006 82.8591C188.953 82.8675 188.904 82.8964 188.831 82.9243C188.84 83.052 188.832 83.1815 188.858 83.3045C189.035 84.1237 189.178 84.9457 189.184 85.7881C189.187 86.1031 189.251 86.4191 189.244 86.7331C189.191 89.281 188.445 91.6099 186.924 93.6574C185.986 94.9201 184.786 95.8828 183.281 96.4168C182.405 96.7271 181.509 96.7737 180.586 96.6461C179.789 96.5352 179.026 96.3199 178.271 96.0524C177.276 95.7001 176.391 95.1587 175.584 94.4858C174.968 93.9723 174.395 93.4178 173.912 92.7692C173.404 92.0852 173.058 91.3294 172.84 90.5149C172.687 89.9399 172.587 89.3546 172.591 88.7526C172.602 87.2541 173.023 85.8916 173.912 84.6829C174.484 83.9066 175.206 83.299 176.053 82.8376C177.072 82.2832 178.153 81.8908 179.274 81.6094C180.103 81.4015 180.938 81.2291 181.789 81.1313C182.434 81.0567 183.078 80.9775 183.723 80.9058C184.205 80.8526 184.686 80.8275 185.168 80.7921C185.217 80.7883 185.263 80.7539 185.339 80.7222C185.162 80.2748 184.896 79.8955 184.637 79.5153C184.154 78.8061 183.594 78.1603 183.022 77.5201C182.324 76.7382 181.532 76.0625 180.757 75.3654C179.871 74.5686 178.932 73.8315 178.084 72.9909C177.245 72.1596 176.523 71.2407 175.928 70.223C175.329 69.2017 174.922 68.1066 174.719 66.9417C174.471 65.5252 174.564 64.1273 174.989 62.7508C175.32 61.6763 175.754 60.6559 176.407 59.7323C177.17 58.6503 178.122 57.7781 179.253 57.0922C180.363 56.4202 181.556 55.9776 182.835 55.7548C183.514 55.6374 184.193 55.5302 184.884 55.5601C186.898 55.6486 188.767 56.1723 190.379 57.4435C190.835 57.8032 191.248 58.2095 191.614 58.655C193.06 60.4145 193.99 62.4172 194.428 64.6548C194.649 65.7768 194.689 66.9054 194.661 68.0423C194.626 69.4607 194.42 70.8558 194.079 72.2314C194.017 72.4839 193.933 72.7309 193.856 72.9797C193.777 73.235 193.63 73.4438 193.435 73.6274C193.04 74.0011 192.38 73.9871 192.027 73.7737C191.545 73.4829 191.333 72.9909 191.402 72.4979C191.418 72.3889 191.457 72.2817 191.49 72.1754C191.795 71.1951 191.948 70.1867 192.075 69.1709C192.164 68.4645 192.192 67.76 192.172 67.0536C192.101 64.4749 191.273 62.1693 189.631 60.1713C189.079 59.4984 188.39 58.9886 187.585 58.6559C186.931 58.3866 186.261 58.1657 185.544 58.1275C185.247 58.1117 184.951 58.0399 184.657 58.0511C182.904 58.121 181.282 58.6028 179.877 59.6792C178.656 60.6158 177.859 61.8525 177.431 63.3296C177.239 63.9922 177.089 64.6585 177.082 65.3556C177.076 66.1291 177.221 66.8746 177.47 67.5987C177.907 68.8699 178.647 69.9593 179.555 70.9378C180.138 71.5669 180.805 72.1074 181.453 72.6684C182.411 73.496 183.387 74.3049 184.275 75.2117C185.162 76.1184 185.989 77.0765 186.713 78.1193C187.106 78.6859 187.456 79.2795 187.747 79.9058C187.832 80.0894 187.928 80.2692 188.027 80.4668" fill="white"/>
<path d="M279.059 23.4575C279.107 23.4342 279.132 23.4304 279.136 23.4183C279.925 21.177 280.713 18.9348 281.499 16.6916C281.505 16.6767 281.5 16.6553 281.494 16.6395C281.49 16.6283 281.474 16.6208 281.448 16.5994C281.219 16.9162 280.978 17.2247 280.762 17.5481C280.027 18.645 279.298 19.7465 278.572 20.849C278.305 21.2525 278.051 21.6635 277.795 22.0735C277.718 22.1956 277.726 22.2842 277.819 22.3755C278.216 22.7641 278.648 23.1089 279.059 23.4575ZM254.971 42.9749C255.307 42.9376 255.578 42.7819 255.8 42.5462C256.056 42.2759 256.316 42.0084 256.55 41.7205C257.045 41.1119 257.449 40.4419 257.812 39.7476C258.539 38.3618 259.157 36.9257 259.778 35.4905C259.901 35.2054 259.898 34.9556 259.79 34.6909C259.654 34.3582 259.451 34.0656 259.17 33.8419C258.439 33.2567 257.604 32.993 256.669 33.1141C256.242 33.1691 255.839 33.3201 255.497 33.5987C255.071 33.9454 254.733 34.3638 254.516 34.8689C254.102 35.8353 253.876 36.8484 253.804 37.8949C253.779 38.2649 253.806 38.6367 253.729 39.0067C253.688 39.2024 253.706 39.4167 253.732 39.619C253.792 40.0794 253.859 40.5397 253.949 40.9945C254.051 41.508 254.217 42.0019 254.49 42.453C254.617 42.6608 254.746 42.864 254.971 42.9749M253.02 10.6742C252.99 10.348 252.955 9.92304 252.909 9.49808C252.887 9.29585 252.844 9.09548 252.807 8.89419C252.607 7.81501 252.176 6.84115 251.501 5.96886C251.066 5.40691 250.524 4.99872 249.871 4.74244C249.367 4.54394 248.84 4.41906 248.29 4.51132C247.529 4.639 246.826 4.91112 246.169 5.32024C245.273 5.87846 244.519 6.59512 243.838 7.38819C243.009 8.35181 242.339 9.42539 241.736 10.5418C240.928 12.0348 240.283 13.5976 239.723 15.1968C239.151 16.8314 238.717 18.5033 238.374 20.1985C238.149 21.3084 237.933 22.4211 237.744 23.5376C237.595 24.4164 237.491 25.3027 237.368 26.1852C237.268 26.9028 237.169 27.6195 237.07 28.337C237.04 28.5598 237.13 28.639 237.364 28.5868C237.653 28.5216 237.941 28.4498 238.23 28.3799C239.604 28.0435 240.937 27.585 242.233 27.0212C244.117 26.202 245.752 25.0156 247.232 23.6047C248.688 22.2161 249.836 20.5974 250.769 18.822C251.551 17.3328 252.118 15.7606 252.538 14.1354C252.822 13.0348 252.978 11.9136 253.02 10.6742M252.3 43.7074C252.097 44.1258 252.026 44.5312 251.922 44.9235C251.372 46.9915 250.759 49.0389 250.04 51.0547C249.739 51.8962 249.401 52.7228 248.975 53.5094C248.591 54.2195 248.12 54.8598 247.485 55.3723C246.914 55.8318 246.266 56.0004 245.551 55.8998C245.156 55.8439 244.816 55.6435 244.522 55.3742C244.157 55.0396 243.908 54.6258 243.743 54.1645C243.573 53.6911 243.464 53.2046 243.389 52.7042C243.211 51.5151 243.286 50.3241 243.326 49.1349C243.355 48.2822 243.45 47.4295 243.54 46.5796C243.621 45.8042 243.732 45.0316 243.834 44.2581C243.954 43.3364 244.076 42.4157 244.203 41.495C244.337 40.5388 244.488 39.5845 244.611 38.6265C244.683 38.0729 244.693 37.5119 244.773 36.9611C244.9 36.0711 244.871 35.1774 244.876 34.2846C244.879 33.8541 244.803 33.4366 244.678 33.0228C244.529 32.5289 244.294 32.4077 243.801 32.6957C243.245 33.02 242.816 33.4878 242.415 33.9808C241.719 34.8372 241.161 35.7832 240.649 36.757C240.016 37.9601 239.456 39.1977 238.991 40.4764C238.807 40.9824 238.651 41.4996 238.512 42.0206C238.243 43.0252 237.942 44.0261 237.754 45.0475C237.581 45.9943 236.532 46.4342 235.798 46.2879C235.364 46.2003 235.079 45.9095 234.932 45.4957C234.877 45.3392 234.844 45.1714 234.823 45.0055C234.733 44.2684 234.652 43.5294 234.564 42.7913C234.508 42.3113 234.445 41.8332 234.385 41.3533C234.378 41.2983 234.373 41.2424 234.37 41.1865C234.321 40.4633 234.298 39.7364 234.219 39.016C234.086 37.8082 234.131 36.5986 234.124 35.389C234.121 34.9975 234.125 34.6052 234.145 34.2147C234.192 33.3061 234.249 32.3965 234.305 31.4562C233.537 31.3602 232.759 31.349 231.992 31.2232C231.222 31.0974 230.479 30.884 229.703 30.6054C229.697 30.7461 229.672 30.8393 229.692 30.9203C229.883 31.6789 229.956 32.458 230.086 33.2269C230.092 33.2632 230.097 33.3005 230.099 33.3378C230.134 34.1924 230.196 35.0479 230.196 35.9034C230.196 36.7589 230.146 37.6153 230.096 38.4699C230.035 39.4904 229.965 40.5118 229.871 41.5294C229.796 42.343 229.68 43.1529 229.579 43.9636C229.496 44.6458 229.424 45.3298 229.319 46.0092C229.182 46.8908 229.042 47.7724 228.858 48.6447C228.633 49.7164 228.388 50.7872 228.101 51.845C227.637 53.5532 227.043 55.2158 226.213 56.787C225.82 57.5325 225.367 58.2343 224.812 58.8671C224.302 59.4486 223.689 59.9024 222.976 60.2053C222.185 60.5417 221.383 60.5268 220.592 60.1978C219.858 59.8931 219.24 59.4216 218.714 58.827C217.917 57.9239 217.33 56.8895 216.829 55.8038C216.094 54.2121 215.578 52.543 215.115 50.8553C214.692 49.312 214.353 47.751 214.047 46.1826C213.884 45.3448 213.781 44.4939 213.66 43.6477C213.554 42.9124 213.461 42.1753 213.362 41.439C213.357 41.4027 213.355 41.3654 213.352 41.3281C213.218 39.9927 213.177 38.6535 213.2 37.3115C213.204 37.0888 213.2 36.8661 213.2 36.6405C213.074 36.6228 213.054 36.7244 213.014 36.7943C211.941 38.7131 210.79 40.5826 209.536 42.3887C208.728 43.5517 207.904 44.7036 206.959 45.7595C206.127 46.6905 205.259 47.5888 204.272 48.3623C203.623 48.8702 202.913 49.2775 202.148 49.5822C201.733 49.7472 201.303 49.8488 200.85 49.8749C200 49.9224 199.285 49.6074 198.643 49.0902C197.783 48.3968 197.27 47.4854 197.012 46.4239C196.89 45.9179 196.817 45.4044 196.76 44.8853C196.695 44.2898 196.665 43.6962 196.694 43.1025C196.725 42.4539 196.794 41.8053 196.868 41.1604C196.933 40.5882 197.023 40.0188 197.111 39.4494C197.293 38.2733 197.555 37.114 197.868 35.9649C198.381 34.0796 198.978 32.2204 199.692 30.4013C200.078 29.4153 200.497 28.4377 200.949 27.4797C202.014 25.2225 203.19 23.0232 204.463 20.876C204.739 20.4119 205.024 19.9525 205.408 19.5648C205.594 19.3756 205.804 19.2405 206.06 19.1538C206.584 18.9777 207.227 19.3383 207.422 19.6841C207.699 20.1752 207.698 20.6654 207.352 21.095C206.6 22.0325 206.067 23.0996 205.482 24.135C204.713 25.4965 204.005 26.8916 203.33 28.3016C202.364 30.3193 201.562 32.3993 200.903 34.5372C200.575 35.6033 200.248 36.6694 200.001 37.7579C199.792 38.6824 199.609 39.6106 199.469 40.549C199.35 41.3412 199.281 42.1343 199.225 42.9329C199.152 43.9655 199.243 44.9748 199.49 45.9719C199.594 46.3922 199.788 46.7715 200.115 47.0744C200.412 47.3493 200.724 47.4509 201.131 47.2999C201.787 47.0576 202.367 46.6979 202.902 46.259C204.236 45.164 205.364 43.877 206.387 42.4968C207.985 40.3394 209.426 38.0804 210.739 35.7394C211.668 34.0824 212.596 32.4263 213.457 30.734C213.694 30.2689 213.95 29.8151 214.207 29.3612C214.299 29.2009 214.405 29.0444 214.528 28.9074C214.93 28.4647 215.483 28.3613 216 28.5821C216.441 28.7704 216.852 29.3137 216.73 29.9455C216.625 30.4926 216.526 31.0415 216.432 31.5913C216.293 32.3965 216.151 33.2017 216.031 34.0097C215.915 34.7813 215.822 35.5558 215.724 36.3302C215.708 36.4588 215.705 36.5902 215.705 36.7207C215.704 37.633 215.686 38.5463 215.715 39.4587C215.733 40.0141 215.82 40.5677 215.88 41.1212C215.922 41.5099 215.97 41.8966 216.012 42.2843C216.337 45.2488 216.955 48.1527 217.768 51.0183C218.119 52.2541 218.528 53.4684 219.056 54.6417C219.401 55.4068 219.786 56.1505 220.297 56.8205C220.568 57.1775 220.874 57.5018 221.257 57.7459C221.627 57.9827 221.981 57.9808 222.346 57.7236C222.717 57.4626 223.024 57.1439 223.29 56.7805C223.842 56.0228 224.245 55.1831 224.609 54.3258C225.329 52.625 225.815 50.8525 226.206 49.0492C226.446 47.9411 226.646 46.8256 226.831 45.7082C226.94 45.0484 227.01 44.3821 227.091 43.7176C227.197 42.8509 227.294 41.9842 227.396 41.1166C227.398 41.0979 227.401 41.0793 227.402 41.0607C227.444 40.4111 227.478 39.7616 227.532 39.112C227.633 37.9052 227.662 36.6964 227.66 35.4859C227.66 35.3927 227.658 35.2995 227.66 35.2063C227.69 33.9901 227.522 32.7926 227.28 31.6072C227.003 30.2344 226.546 28.9176 225.937 27.6558C225.807 27.3883 225.649 27.1348 225.51 26.872C225.396 26.6586 225.282 26.4452 225.184 26.2244C224.919 25.6233 225.191 24.6811 226.171 24.4938C226.545 24.4229 226.869 24.5571 227.152 24.7938C227.37 24.9765 227.517 25.2132 227.642 25.4667C228.141 26.4806 228.913 27.2457 229.838 27.8701C230.354 28.2187 230.94 28.4135 231.53 28.5765C232.047 28.7191 232.575 28.8319 233.12 28.8431C233.471 28.8505 233.823 28.9009 234.175 28.9251C234.265 28.9316 234.358 28.913 234.473 28.9036C234.503 28.7955 234.55 28.693 234.557 28.5877C234.615 27.6595 234.751 26.7406 234.886 25.8208C234.981 25.1778 235.052 24.531 235.149 23.888C235.251 23.2077 235.358 22.5283 235.488 21.8536C235.685 20.8322 235.904 19.8155 236.114 18.7969C236.438 17.2275 236.904 15.6991 237.424 14.1857C237.949 12.6517 238.587 11.1653 239.337 9.72826C240.036 8.38722 240.824 7.10302 241.796 5.9409C242.66 4.90739 243.62 3.97453 244.77 3.25788C245.531 2.78353 246.336 2.41541 247.213 2.19082C248.839 1.77425 250.345 2.05476 251.762 2.90468C252.743 3.49272 253.472 4.33053 254.068 5.29321C254.825 6.51777 255.231 7.85415 255.409 9.27908C255.513 10.1169 255.527 10.9528 255.469 11.7869C255.405 12.6937 255.26 13.5958 255.037 14.4802C254.559 16.3804 253.912 18.2191 253 19.9581C251.802 22.2404 250.274 24.2673 248.337 25.9746C247.415 26.7891 246.45 27.5496 245.392 28.1851C244.079 28.9735 242.69 29.5942 241.24 30.0863C240.095 30.474 238.935 30.8039 237.752 31.0527C237.465 31.1133 237.174 31.1636 236.86 31.2232C236.845 31.349 236.829 31.4562 236.821 31.5634C236.76 32.3797 236.746 33.2008 236.681 34.0153C236.588 35.1699 236.614 36.3227 236.623 37.4765C236.628 38.0328 236.698 38.5883 236.742 39.2099C236.816 39.0729 236.87 38.9881 236.907 38.8977C237.554 37.3097 238.286 35.7636 239.166 34.2902C239.732 33.3434 240.376 32.4543 241.139 31.6584C241.683 31.0909 242.294 30.5951 243.035 30.3025C244.071 29.8934 245.074 29.9428 245.995 30.624C246.458 30.966 246.768 31.4357 246.966 31.965C247.172 32.5223 247.32 33.0983 247.351 33.7012C247.373 34.128 247.479 34.5549 247.42 34.9798C247.309 35.7748 247.387 36.579 247.252 37.373C247.171 37.8474 247.156 38.3338 247.105 38.8147C247.071 39.1474 247.032 39.4801 246.984 39.811C246.812 41.0057 246.629 42.1995 246.461 43.3942C246.365 44.0755 246.286 44.7586 246.207 45.4417C246.101 46.3456 245.986 47.2487 245.906 48.1555C245.841 48.8963 245.814 49.6409 245.782 50.3846C245.767 50.7378 245.775 51.0929 245.78 51.4461C245.787 52.0071 245.894 52.5551 246.022 53.0984C246.029 53.1264 246.073 53.1459 246.11 53.1786C246.206 53.1916 246.266 53.1068 246.312 53.035C246.496 52.7555 246.685 52.4777 246.842 52.1823C247.262 51.392 247.576 50.5542 247.863 49.709C248.413 48.0893 248.907 46.4528 249.353 44.7996C249.774 43.2386 250.262 41.6962 250.722 40.1455C250.817 39.8249 250.909 39.5025 251.019 39.1866C251.154 38.797 251.219 38.4019 251.256 37.989C251.361 36.8213 251.553 35.6667 251.951 34.5558C252.224 33.7963 252.586 33.0889 253.102 32.4627C253.825 31.5857 254.732 30.9791 255.838 30.7414C257.743 30.3314 259.451 30.7694 260.92 32.0694C260.987 32.1291 261.056 32.1868 261.149 32.2651C261.541 31.35 261.916 30.459 262.308 29.5756C262.42 29.3221 262.546 29.0649 262.719 28.8515C262.992 28.5141 263.384 28.3454 263.81 28.4125C264.293 28.4889 264.672 28.7592 264.844 29.2475C264.939 29.5187 264.919 29.802 264.875 30.0779C264.615 31.7097 264.383 33.3462 264.034 34.9649C263.826 35.9257 263.693 36.9043 263.532 37.8753C263.427 38.5165 263.321 39.1586 263.239 39.8035C263.174 40.3198 263.135 40.8398 263.101 41.3589C263.059 41.9712 263.007 42.5844 263.011 43.1967C263.015 43.8481 263.115 44.4939 263.315 45.1174C263.354 45.2394 263.413 45.355 263.456 45.4557C263.591 45.5032 263.657 45.4324 263.718 45.3662C264.047 45.0055 264.312 44.5973 264.526 44.164C264.913 43.3802 265.3 42.5946 265.637 41.7885C266.375 40.0197 267.066 38.2323 267.803 36.4644C268.355 35.1429 268.94 33.8345 269.528 32.5279C270.14 31.171 270.75 29.8123 271.403 28.474C272.03 27.1861 272.705 25.9205 273.372 24.6522C273.684 24.0604 274.026 23.4845 274.367 22.8778C274.306 22.8144 274.253 22.738 274.183 22.6867C272.59 21.5451 270.934 20.5144 269.092 19.8145C268.221 19.4837 267.336 19.2265 266.407 19.1016C265.606 18.9935 264.819 19.0019 264.018 19.0951C262.877 19.2274 261.794 19.5396 260.767 20.0345C259.529 20.6318 258.432 21.4203 257.596 22.5358C257.405 22.7911 257.256 23.0632 257.151 23.3671C257.016 23.7538 256.767 24.0362 256.364 24.1778C255.577 24.4546 254.732 23.8833 254.701 23.0446C254.69 22.7371 254.794 22.4594 254.911 22.1844C255.165 21.5973 255.526 21.0782 255.947 20.602C257.547 18.7913 259.539 17.6198 261.857 16.9759C262.611 16.7662 263.379 16.6134 264.153 16.5584C264.967 16.4997 265.784 16.5099 266.604 16.6115C268.002 16.7848 269.327 17.1874 270.611 17.7391C271.724 18.2172 272.799 18.7754 273.817 19.4334C274.333 19.767 274.839 20.1156 275.35 20.4557C275.456 20.5256 275.565 20.5899 275.692 20.6701C275.773 20.5638 275.846 20.4818 275.905 20.3905C276.676 19.2041 277.44 18.0122 278.217 16.8296C279.058 15.5519 280.009 14.3572 281.034 13.223C281.357 12.8651 281.723 12.5427 282.094 12.2324C282.289 12.0693 282.528 11.9444 282.766 11.8456C283.598 11.4989 284.41 12.0739 284.648 12.6881C284.736 12.9127 284.797 13.1447 284.802 13.3926C284.813 13.9546 284.769 14.51 284.623 15.0514C284.488 15.5538 284.345 16.0561 284.177 16.5481C283.445 18.6953 282.701 20.8397 281.963 22.985C281.74 23.6355 281.521 24.2878 281.301 24.9392C281.271 25.0278 281.237 25.1144 281.213 25.2039C281.183 25.3185 281.204 25.4248 281.291 25.5124C281.318 25.5385 281.343 25.5664 281.371 25.5916C282.689 26.8003 284.02 27.9941 285.533 28.9624C286.463 29.5569 287.445 30.0359 288.52 30.309C288.899 30.405 289.277 30.4861 289.668 30.5205C290.057 30.555 290.441 30.6277 290.834 30.6063C292.441 30.5178 293.952 30.1291 295.3 29.214C296.322 28.5206 297.111 27.6148 297.717 26.5468C298.3 25.5179 298.668 24.4145 298.881 23.2496C298.983 22.6961 299.005 22.1388 299.042 21.5852C299.073 21.109 298.965 20.6244 298.923 20.1426C298.898 19.8472 298.849 19.5489 298.866 19.2544C298.902 18.6412 299.508 18.1091 300.113 18.1212C300.681 18.1324 301.25 18.5974 301.325 19.1706C301.448 20.11 301.606 21.0484 301.546 22.0027C301.389 24.5292 300.675 26.8665 299.151 28.9139C297.66 30.9166 295.691 32.2073 293.253 32.773C292.399 32.9715 291.536 33.0964 290.658 33.0908C289.192 33.0815 287.782 32.7898 286.423 32.2381C285.188 31.7367 284.073 31.034 283.006 30.2484C282.121 29.5961 281.297 28.8682 280.466 28.1497C280.411 28.1022 280.35 28.0593 280.261 27.9904C280.204 28.146 280.152 28.2774 280.109 28.4116C279.342 30.8206 278.566 33.2278 277.814 35.6415C277.305 37.2742 276.844 38.9219 276.46 40.5882C276.093 42.1818 275.746 43.7791 275.484 45.3941C275.33 46.3484 275.195 47.3055 275.088 48.2645C274.902 49.9522 274.88 51.6474 274.972 53.3416C275.007 53.9893 275.114 54.6361 275.43 55.2251C275.509 55.3714 275.564 55.5317 275.622 55.6882C275.899 56.4347 275.238 57.3005 274.463 57.2725C273.945 57.2539 273.569 57.0545 273.326 56.6043C272.944 55.8951 272.679 55.1487 272.569 54.3425C272.507 53.8794 272.492 53.4171 272.455 52.954C272.41 52.3967 272.347 51.8394 272.388 51.2821C272.45 50.4294 272.437 49.5711 272.56 48.723C272.571 48.6494 272.572 48.5739 272.577 48.4993C272.631 47.5711 272.759 46.6523 272.894 45.7324C273.086 44.4259 273.318 43.1268 273.606 41.8398C273.906 40.4978 274.233 39.1614 274.581 37.8315C275.165 35.6005 275.87 33.4058 276.585 31.2139C277.086 29.6753 277.58 28.1348 278.079 26.5953C278.107 26.5067 278.141 26.4201 278.167 26.3315C278.207 26.1964 278.186 26.0762 278.079 25.9737C277.541 25.4611 276.996 24.9579 276.387 24.4714C276.32 24.5599 276.26 24.6242 276.216 24.6988C276.01 25.0529 275.804 25.407 275.607 25.7668C274.502 27.7937 273.477 29.8607 272.53 31.9669C272.004 33.1383 271.454 34.2995 270.951 35.4803C270.258 37.1056 269.59 38.742 268.929 40.3813C268.324 41.8826 267.719 43.384 267.002 44.8369C266.722 45.4053 266.395 45.9468 266.033 46.4677C265.775 46.8377 265.476 47.1704 265.124 47.4481C264.568 47.8871 263.943 48.1405 263.215 48.1005C262.729 48.0734 262.31 47.9104 261.953 47.5814C261.535 47.1956 261.218 46.7454 261.029 46.2049C260.826 45.6234 260.698 45.0288 260.605 44.4184C260.479 43.5825 260.479 42.7437 260.547 41.9115C260.601 41.2648 260.574 40.6087 260.718 39.9685C260.739 39.8715 260.721 39.7653 260.721 39.5565C260.58 39.8352 260.489 40.0169 260.397 40.1977C259.857 41.262 259.282 42.3048 258.535 43.2433C258.128 43.7558 257.676 44.2264 257.178 44.6477C256.577 45.1556 255.863 45.4146 255.088 45.4901C254.655 45.533 254.234 45.4165 253.851 45.2171C253.401 44.9841 252.994 44.6905 252.704 44.2591C252.592 44.0904 252.465 43.9301 252.3 43.7074" fill="white"/>
<path d="M260.581 102.717C259.718 103.922 257.457 108.312 257.206 109.243C257.711 109.468 258.259 109.57 258.782 109.744C258.901 109.783 259.036 109.775 259.183 109.791C259.229 109.658 259.284 109.54 259.309 109.416C259.749 107.222 260.267 105.041 260.581 102.717ZM228.179 120.871C228.325 121.103 228.523 121.179 228.689 121.293C229.291 121.706 229.962 121.874 230.689 121.859C231.148 121.849 231.508 121.666 231.789 121.304C232.349 120.585 232.504 119.764 232.391 118.885C232.351 118.572 232.221 118.28 232.022 118.023C231.875 117.833 231.696 117.733 231.453 117.73C230.79 117.723 230.216 117.955 229.718 118.376C229.274 118.753 228.92 119.207 228.672 119.736C228.499 120.105 228.346 120.484 228.179 120.871M243.831 137.822C243.89 137.804 243.936 137.804 243.954 137.781C244.073 137.638 244.196 137.498 244.297 137.343C244.974 136.312 245.522 135.212 245.922 134.046C246.421 132.588 246.899 131.121 247.362 129.649C247.797 128.267 248.198 126.874 248.617 125.486C249.047 124.063 249.472 122.638 249.91 121.218C250.48 119.37 251.142 117.554 251.81 115.738C252.38 114.185 252.94 112.628 253.595 111.107C253.651 110.977 253.733 110.848 253.714 110.692C251.849 109.881 249.992 109.075 248.136 108.27C248.121 108.263 248.1 108.267 248.083 108.271C248.066 108.275 248.05 108.284 248.019 108.299C247.791 109.244 247.561 110.2 247.332 111.155C246.851 113.161 246.361 115.163 245.895 117.172C245.665 118.166 245.472 119.171 245.277 120.173C245.109 121.03 244.959 121.889 244.809 122.749C244.662 123.591 244.521 124.433 244.384 125.276C244.295 125.826 244.209 126.376 244.132 126.928C244.025 127.701 243.921 128.474 243.83 129.249C243.771 129.746 243.737 130.248 243.693 130.747C243.632 131.431 243.537 132.115 243.517 132.801C243.487 133.862 243.498 134.924 243.51 135.986C243.516 136.544 243.619 137.094 243.736 137.639C243.75 137.706 243.801 137.764 243.831 137.822M209.984 122.405C210.091 122.349 210.161 122.322 210.22 122.28C211.01 121.72 211.814 121.179 212.582 120.591C214.492 119.129 216.27 117.514 217.969 115.812C219.168 114.612 220.329 113.38 221.388 112.052C222.775 110.311 223.959 108.445 224.877 106.416C225.682 104.634 226.101 102.754 226.16 100.799C226.184 100 226.206 99.1986 226.044 98.4055C225.917 97.7839 225.75 97.1763 225.475 96.6031C225.191 96.0104 224.838 95.4662 224.335 95.031C223.771 94.5426 223.109 94.332 222.374 94.3982C222.026 94.4299 221.679 94.5165 221.347 94.6433C220.447 94.9862 219.661 95.5118 218.956 96.1586C217.51 97.4838 216.425 99.0802 215.517 100.804C214.699 102.356 214.088 103.994 213.527 105.652C212.853 107.643 212.279 109.661 211.812 111.712C211.453 113.288 211.125 114.87 210.847 116.463C210.684 117.395 210.528 118.33 210.376 119.265C210.235 120.127 210.1 120.989 209.973 121.852C209.949 122.013 209.92 122.183 209.984 122.405ZM244.835 110.576C244.674 110.928 244.509 111.279 244.352 111.633C243.954 112.536 243.555 113.438 243.166 114.343C242.564 115.745 241.962 117.147 241.374 118.554C240.334 121.045 239.261 123.521 238.002 125.91C237.221 127.394 236.374 128.84 235.406 130.21C234.757 131.127 234.009 131.953 233.11 132.635C232.618 133.008 232.093 133.318 231.509 133.528C230.933 133.734 230.36 133.751 229.755 133.653C228.533 133.456 227.641 132.789 226.936 131.82C226.292 130.934 225.888 129.938 225.591 128.894C225.555 128.771 225.509 128.652 225.448 128.474C225.119 129.244 224.806 129.953 224.512 130.669C223.408 133.353 222.307 136.038 221.212 138.724C220.615 140.189 219.974 141.635 219.273 143.053C218.804 144.005 218.358 144.967 217.891 145.921C217.514 146.691 217.076 147.427 216.589 148.133C216.09 148.857 215.513 149.509 214.816 150.054C214.164 150.564 213.432 150.873 212.615 150.904C211.832 150.933 211.103 150.697 210.493 150.187C209.873 149.67 209.358 149.061 208.972 148.347C208.419 147.326 208.045 146.237 207.709 145.132C207.444 144.26 207.235 143.374 207.077 142.476C207.01 142.092 206.967 141.704 206.917 141.317C206.853 140.838 206.794 140.359 206.733 139.88C206.729 139.843 206.722 139.806 206.719 139.769C206.675 139.194 206.618 138.62 206.592 138.045C206.536 136.725 206.453 135.404 206.496 134.081C206.534 132.947 206.555 131.811 206.61 130.676C206.644 129.99 206.731 129.306 206.785 128.621C206.824 128.142 206.845 127.662 206.874 127.183C206.761 127.086 206.666 127.167 206.571 127.212C205.798 127.581 205.008 127.909 204.204 128.199C203.119 128.59 202.027 128.954 200.897 129.192C200.335 129.309 199.771 129.418 199.199 129.494C198.034 129.647 196.866 129.711 195.692 129.7C194.573 129.689 193.468 129.577 192.366 129.389C190.462 129.068 188.726 128.356 187.149 127.246C185.453 126.053 184.13 124.547 183.274 122.646C182.875 121.76 182.61 120.833 182.429 119.879C182.175 118.533 182.154 117.175 182.237 115.819C182.311 114.631 182.471 113.45 182.785 112.299C183.127 111.048 183.662 109.887 184.474 108.865C184.849 108.392 185.315 108.023 185.819 107.7C186.114 107.51 186.439 107.465 186.783 107.524C187.341 107.622 187.791 108.13 187.796 108.696C187.798 109.004 187.669 109.276 187.477 109.511C187.396 109.611 187.298 109.706 187.19 109.774C186.514 110.193 186.085 110.818 185.741 111.509C185.39 112.213 185.175 112.962 185.029 113.734C184.881 114.52 184.782 115.314 184.724 116.109C184.671 116.849 184.668 117.594 184.762 118.339C184.831 118.893 184.89 119.446 185.017 119.99C185.356 121.431 185.987 122.717 187 123.81C188.203 125.108 189.645 126.027 191.327 126.572C191.947 126.772 192.583 126.898 193.225 127.005C194.498 127.217 195.78 127.252 197.063 127.194C197.672 127.166 198.282 127.097 198.891 127.017C199.741 126.904 200.575 126.73 201.396 126.498C202.523 126.179 203.627 125.785 204.699 125.311C205.43 124.989 206.143 124.625 206.871 124.294C207.103 124.189 207.216 124.032 207.242 123.787C207.321 123.029 207.398 122.27 207.494 121.515C207.576 120.871 207.679 120.228 207.781 119.586C207.896 118.852 208.015 118.119 208.142 117.386C208.336 116.27 208.522 115.151 208.741 114.04C209.057 112.436 209.406 110.837 209.827 109.257C210.513 106.686 211.315 104.151 212.333 101.691C212.911 100.295 213.608 98.9572 214.438 97.6944C215.323 96.3496 216.342 95.1158 217.564 94.0636C218.619 93.1559 219.796 92.4532 221.157 92.0973C221.899 91.9034 222.641 91.8447 223.416 91.9686C224.795 92.1904 225.879 92.868 226.741 93.9378C227.696 95.1251 228.242 96.495 228.518 97.9824C228.593 98.3859 228.639 98.7904 228.647 99.2014C228.651 99.4614 228.715 99.7204 228.711 99.9786C228.699 100.778 228.645 101.575 228.549 102.37C228.469 103.035 228.348 103.691 228.204 104.346C227.963 105.441 227.597 106.493 227.132 107.51C226.142 109.67 224.883 111.664 223.404 113.523C222.651 114.472 221.861 115.389 221.016 116.257C220.47 116.817 219.943 117.396 219.381 117.94C217.56 119.702 215.683 121.402 213.646 122.916C212.495 123.771 211.311 124.577 210.089 125.329C209.977 125.397 209.873 125.479 209.755 125.533C209.579 125.615 209.528 125.747 209.513 125.934C209.453 126.656 209.376 127.376 209.305 128.098C209.303 128.116 209.303 128.135 209.303 128.154C209.253 128.971 209.215 129.788 209.153 130.605C208.977 132.948 209.031 135.295 209.078 137.641C209.091 138.308 209.191 138.973 209.255 139.639C209.293 140.027 209.344 140.414 209.383 140.803C209.561 142.61 210.024 144.348 210.662 146.041C210.872 146.597 211.102 147.151 211.478 147.624C211.604 147.784 211.733 147.945 211.877 148.089C212.213 148.419 212.643 148.475 213.048 148.239C213.191 148.156 213.324 148.048 213.449 147.939C213.916 147.533 214.32 147.07 214.642 146.542C214.963 146.019 215.298 145.5 215.566 144.95C216.463 143.109 217.352 141.265 218.204 139.404C218.723 138.272 219.179 137.11 219.652 135.957C220.604 133.633 221.53 131.3 222.502 128.985C223.317 127.046 224.089 125.089 225.024 123.204C225.156 122.936 225.225 122.653 225.268 122.353C225.513 120.657 226.025 119.051 227.034 117.645C227.603 116.852 228.298 116.177 229.196 115.749C230.055 115.34 230.96 115.15 231.906 115.263C232.736 115.361 233.417 115.762 233.942 116.417C234.567 117.198 234.892 118.085 234.91 119.092C234.925 119.9 234.867 120.693 234.56 121.449C234.218 122.291 233.732 123.034 233.002 123.59C232.395 124.053 231.703 124.301 230.938 124.341C229.857 124.398 228.828 124.208 227.86 123.713C227.812 123.689 227.756 123.683 227.671 123.66C227.651 123.756 227.621 123.841 227.621 123.925C227.621 124.65 227.582 125.381 227.639 126.103C227.734 127.313 227.98 128.497 228.521 129.597C228.668 129.896 228.842 130.186 229.035 130.458C229.3 130.832 229.651 131.1 230.114 131.198C230.32 131.242 230.513 131.242 230.715 131.163C231.047 131.03 231.343 130.84 231.627 130.63C232.263 130.16 232.777 129.572 233.24 128.938C233.922 128.005 234.521 127.017 235.09 126.012C236.247 123.97 237.25 121.851 238.162 119.689C238.978 117.751 239.792 115.814 240.619 113.881C241.168 112.599 241.734 111.324 242.297 110.047C242.779 108.958 243.268 107.872 243.752 106.784C243.775 106.734 243.788 106.68 243.814 106.6C243.743 106.552 243.677 106.483 243.597 106.458C242.375 106.072 241.146 105.718 239.872 105.533C239.005 105.406 238.137 105.295 237.261 105.342C236.064 105.404 234.897 105.611 233.839 106.225C233.452 106.451 233.085 106.704 232.816 107.075C232.684 107.257 232.567 107.442 232.504 107.662C232.457 107.822 232.393 107.982 232.305 108.123C232.004 108.608 231.547 108.752 231.003 108.676C230.563 108.616 230.168 108.229 230.054 107.764C229.955 107.364 230.044 106.987 230.197 106.624C230.528 105.834 231.057 105.192 231.72 104.656C232.618 103.929 233.65 103.472 234.762 103.189C235.265 103.06 235.78 102.995 236.297 102.93C236.855 102.859 237.41 102.853 237.967 102.85C238.656 102.846 239.336 102.953 240.018 103.036C240.627 103.11 241.226 103.233 241.823 103.366C242.658 103.552 243.477 103.792 244.288 104.063C244.411 104.104 244.534 104.147 244.66 104.18C244.846 104.228 244.93 104.193 245.021 104.013C245.188 103.68 245.347 103.343 245.51 103.008C246.025 101.955 246.543 100.903 247.053 99.8472C247.185 99.5732 247.356 99.3356 247.58 99.1333C247.963 98.7857 248.409 98.7056 248.876 98.9031C249.357 99.1072 249.636 99.48 249.657 100.025C249.675 100.476 249.601 100.917 249.512 101.353C249.238 102.701 248.949 104.045 248.666 105.39C248.658 105.427 248.653 105.463 248.647 105.5C248.621 105.666 248.659 105.752 248.794 105.824C248.843 105.851 248.895 105.871 248.946 105.894C250.704 106.652 252.463 107.411 254.222 108.169C254.273 108.192 254.326 108.208 254.378 108.228C254.755 108.377 254.77 108.374 254.934 108.036C255.129 107.634 255.327 107.233 255.509 106.825C256.059 105.602 256.705 104.428 257.343 103.249C257.795 102.413 258.27 101.592 258.809 100.808C259.211 100.224 259.643 99.6627 260.173 99.1874C260.494 98.9003 260.836 98.659 261.278 98.5695C261.975 98.4288 262.644 98.7177 262.97 99.3402C263.092 99.5723 263.183 99.8174 263.184 100.085C263.187 100.978 263.193 101.868 263.093 102.76C262.902 104.463 262.546 106.133 262.202 107.807C262.052 108.535 261.893 109.262 261.742 109.989C261.724 110.08 261.704 110.178 261.72 110.265C261.731 110.323 261.798 110.404 261.852 110.415C262.107 110.467 262.365 110.504 262.622 110.537C263.845 110.694 265.075 110.739 266.3 110.645C267.711 110.535 269.09 110.242 270.398 109.665C271.722 109.081 272.847 108.245 273.663 107.041C274.422 105.921 274.825 104.677 274.798 103.31C274.793 103.028 274.771 102.754 274.613 102.506C274.563 102.429 274.528 102.339 274.498 102.252C274.216 101.426 274.925 100.523 275.79 100.622C276.174 100.665 276.507 100.842 276.721 101.175C277.016 101.634 277.222 102.132 277.266 102.682C277.44 104.867 276.862 106.845 275.604 108.631C274.807 109.762 273.782 110.644 272.596 111.339C271.252 112.128 269.796 112.633 268.265 112.903C267.388 113.056 266.502 113.178 265.603 113.159C265.12 113.149 264.635 113.155 264.15 113.152C263.461 113.149 262.779 113.062 262.098 112.959C261.772 112.911 261.443 112.877 261.089 112.834C260.962 113.381 260.839 113.903 260.721 114.426C260.359 116.021 259.991 117.614 259.643 119.212C259.426 120.21 259.239 121.214 259.042 122.217C258.868 123.111 258.689 124.004 258.532 124.9C258.386 125.723 258.261 126.551 258.136 127.376C258.029 128.074 257.926 128.773 257.837 129.473C257.776 129.952 257.741 130.435 257.693 130.916C257.63 131.544 257.564 132.172 257.5 132.8C257.459 133.207 257.416 133.614 257.378 134.021C257.33 134.539 257.289 135.057 257.237 135.576C257.181 136.149 257.117 136.721 257.056 137.294C257.051 137.349 257.045 137.405 257.042 137.461C256.995 138.222 256.951 138.984 256.901 139.745C256.874 140.152 256.853 140.562 256.798 140.967C256.707 141.641 256.252 142.014 255.659 142.091C255.007 142.175 254.349 141.61 254.326 140.948C254.312 140.559 254.339 140.166 254.361 139.776C254.376 139.498 254.412 139.221 254.441 138.944C254.524 138.149 254.532 137.348 254.635 136.554C254.704 136.02 254.724 135.48 254.776 134.944C254.828 134.407 254.893 133.872 254.954 133.337C254.961 133.282 254.975 133.227 254.98 133.172C255.026 132.597 255.064 132.022 255.118 131.448C255.168 130.912 255.235 130.377 255.296 129.842C255.339 129.473 255.392 129.105 255.427 128.735C255.552 127.364 255.796 126.01 256.025 124.655C256.229 123.446 256.476 122.244 256.714 121.042C256.916 120.022 257.123 119.001 257.345 117.985C257.619 116.733 257.912 115.485 258.197 114.234C258.313 113.727 258.432 113.221 258.543 112.712C258.57 112.589 258.568 112.458 258.582 112.312C258.469 112.262 258.372 112.206 258.269 112.176C257.664 111.993 257.057 111.818 256.453 111.638C256.162 111.552 256.114 111.564 255.994 111.866C255.542 113.008 255.082 114.146 254.654 115.296C254.044 116.934 253.438 118.574 252.873 120.228C252.429 121.529 252.049 122.853 251.642 124.167C251.313 125.233 250.983 126.298 250.66 127.365C250.282 128.611 249.932 129.865 249.535 131.103C249.063 132.573 248.585 134.041 248.054 135.489C247.624 136.661 247.025 137.758 246.331 138.801C246.008 139.286 245.64 139.725 245.154 140.056C244.83 140.276 244.489 140.453 244.106 140.562C243.314 140.787 242.682 140.527 242.139 139.965C241.849 139.666 241.66 139.299 241.513 138.916C241.312 138.394 241.203 137.848 241.12 137.294C241.015 136.59 241.034 135.883 240.992 135.179C240.963 134.675 240.994 134.176 241.003 133.675C241.012 133.172 241.009 132.668 241.043 132.167C241.089 131.5 241.164 130.835 241.229 130.169C241.266 129.781 241.309 129.393 241.342 129.004C241.46 127.651 241.667 126.312 241.894 124.974C242.102 123.747 242.272 122.513 242.501 121.29C242.783 119.774 243.105 118.266 243.416 116.755C243.806 114.862 244.305 112.994 244.763 111.116C244.807 110.938 244.805 110.75 244.825 110.565C244.852 110.545 244.89 110.528 244.901 110.501C244.91 110.481 244.885 110.445 244.873 110.416C244.867 110.434 244.858 110.45 244.855 110.467C244.846 110.503 244.842 110.539 244.835 110.576" fill="white"/>
<path d="M294.46 77.3075C294.46 77.5498 294.462 77.7922 294.46 78.0345C294.449 79.2898 294.67 80.5134 294.972 81.7258C295.138 82.395 295.373 83.0408 295.641 83.6754C295.9 84.2877 296.266 84.8012 296.86 85.1544C297.445 85.5011 297.472 86.0062 297.373 86.515C297.278 86.9978 296.746 87.3994 296.228 87.4302C296.015 87.4432 295.823 87.3789 295.636 87.296C295.167 87.0872 294.797 86.7471 294.442 86.3892C293.976 85.9195 293.647 85.3585 293.379 84.7602C292.859 83.6009 292.505 82.3866 292.266 81.1434C292.118 80.3783 292.026 79.6029 291.976 78.821C291.929 78.095 291.876 77.37 291.918 76.6468C291.96 75.9236 291.998 75.2005 292.086 74.4791C292.399 71.907 293.193 69.4719 294.2 67.1057C295.143 64.8859 296.385 62.8309 297.872 60.9298C298.653 59.9308 299.489 58.9802 300.384 58.0818C301.586 56.8731 302.937 55.8583 304.384 54.9636C305.383 54.3457 306.43 53.8239 307.519 53.3812C308.487 52.987 309.475 52.7027 310.527 52.6095C311.306 52.5396 312.048 52.6217 312.766 52.8984C314.092 53.4101 314.868 54.3979 315.148 55.7734C315.339 56.711 315.326 57.6541 315.194 58.6046C314.996 60.0277 314.617 61.406 314.223 62.7816C313.834 64.1412 313.333 65.4637 312.862 66.7954C312.403 68.0926 311.985 69.4039 311.552 70.7095C310.803 72.9685 310 75.2088 309.196 77.4492C308.411 79.6374 307.608 81.819 306.741 83.9755C305.913 86.0332 304.953 88.0285 303.793 89.9221C303.041 91.1495 302.188 92.2967 301.116 93.2724C300.037 94.2547 298.815 94.9648 297.391 95.3199C296.603 95.5165 295.796 95.5836 295.009 95.4569C293.826 95.2668 292.791 94.7412 291.977 93.8185C291.225 92.964 290.661 92.0162 290.404 90.9016C290.291 90.4123 290.226 89.911 290.237 89.4096C290.256 88.582 290.965 88.0014 291.806 88.1934C292.263 88.2978 292.562 88.5914 292.683 89.0368C292.75 89.2856 292.776 89.5512 292.784 89.8094C292.807 90.526 293.082 91.1476 293.487 91.7189C293.637 91.9314 293.81 92.1299 293.996 92.3116C294.141 92.4523 294.31 92.5781 294.489 92.6713C295.137 93.0106 295.821 93.086 296.544 92.9472C297.699 92.7263 298.655 92.1504 299.509 91.3713C300.104 90.8271 300.602 90.2027 301.058 89.541C301.576 88.7899 302.036 88.0033 302.475 87.2018C303.505 85.3203 304.299 83.3343 305.084 81.3428C305.704 79.7678 306.264 78.1714 306.838 76.5788C307.423 74.9516 308.034 73.3347 308.571 71.6899C309.107 70.046 309.661 68.4076 310.219 66.7712C310.596 65.6622 310.994 64.5597 311.381 63.4544C311.853 62.1012 312.221 60.7173 312.524 59.3185C312.669 58.6494 312.807 57.9737 312.802 57.2776C312.799 56.9011 312.726 56.5386 312.66 56.1732C312.545 55.5367 312.112 55.2217 311.507 55.1286C311.044 55.0568 310.577 55.0847 310.117 55.1705C309.214 55.3401 308.376 55.7017 307.551 56.0884C305.787 56.916 304.179 57.9812 302.735 59.2952C301.491 60.4275 300.408 61.7033 299.403 63.0472C298.508 64.2438 297.746 65.5233 297.072 66.8532C296.373 68.2333 295.824 69.6769 295.384 71.1605C295.156 71.9266 294.925 72.6917 294.788 73.481C294.711 73.92 294.654 74.3626 294.577 74.8007C294.43 75.6319 294.473 76.4707 294.46 77.3075Z" fill="white"/>
<path d="M265.101 123.801C265.16 123.822 265.178 123.836 265.192 123.832C265.367 123.775 265.542 123.713 265.718 123.657C266.775 123.317 267.637 122.691 268.354 121.853C268.609 121.555 268.829 121.233 268.971 120.865C269.161 120.379 269.157 119.881 269.014 119.388C268.926 119.083 268.779 119.01 268.467 119.087C268.36 119.113 268.253 119.153 268.159 119.21C267.758 119.45 267.374 119.719 267.07 120.073C266.138 121.158 265.397 122.347 265.101 123.801ZM286.813 114.876C286.491 114.76 286.198 114.729 285.9 114.714C285.249 114.682 284.605 114.587 283.95 114.596C282.833 114.611 281.716 114.604 280.597 114.608C280.504 114.608 280.411 114.615 280.319 114.614C280.013 114.61 279.773 114.74 279.615 114.994C279.418 115.31 279.223 115.628 279.054 115.959C278.587 116.87 278.206 117.82 277.823 118.77C277.148 120.442 276.493 122.125 275.775 123.779C274.898 125.8 273.823 127.715 272.461 129.455C271.752 130.358 270.894 131.103 269.903 131.679C269.22 132.075 268.459 132.264 267.679 132.365C267.247 132.42 266.827 132.313 266.407 132.24C266.206 132.204 266.013 132.129 265.817 132.075C264.859 131.808 264.146 131.216 263.567 130.424C263.084 129.763 262.833 129.009 262.628 128.233C262.314 127.047 262.296 125.835 262.411 124.628C262.495 123.742 262.704 122.871 263.003 122.025C263.21 121.442 263.472 120.891 263.794 120.366C264.281 119.57 264.795 118.797 265.474 118.144C265.892 117.743 266.352 117.399 266.84 117.088C267.62 116.589 268.479 116.487 269.364 116.609C270.04 116.704 270.572 117.087 270.948 117.656C271.27 118.142 271.461 118.687 271.563 119.261C271.846 120.846 271.313 122.187 270.319 123.387C269.938 123.848 269.502 124.255 269.052 124.645C268.571 125.063 268.026 125.389 267.448 125.649C266.905 125.893 266.353 126.117 265.773 126.26C265.54 126.317 265.3 126.345 265.063 126.393C264.93 126.42 264.854 126.512 264.877 126.626C264.994 127.208 265.063 127.802 265.289 128.358C265.331 128.462 265.367 128.569 265.417 128.668C265.69 129.206 266.077 129.609 266.699 129.73C266.881 129.765 267.058 129.826 267.24 129.859C267.348 129.877 267.465 129.884 267.571 129.863C268.181 129.747 268.742 129.522 269.24 129.135C269.893 128.626 270.451 128.039 270.915 127.353C271.573 126.38 272.217 125.4 272.742 124.349C273.233 123.367 273.673 122.36 274.083 121.342C274.735 119.72 275.377 118.093 276.05 116.48C276.388 115.675 276.752 114.878 277.205 114.127C277.534 113.583 277.885 113.063 278.41 112.677C278.671 112.485 278.951 112.335 279.258 112.269C279.601 112.196 279.946 112.121 280.305 112.123C281.851 112.133 283.398 112.113 284.943 112.138C285.535 112.148 286.125 112.251 286.715 112.31C286.882 112.326 287.049 112.341 287.216 112.349C287.61 112.368 287.991 112.46 288.356 112.596C289.24 112.922 289.683 113.772 289.498 114.701C289.395 115.217 289.192 115.695 288.99 116.174C288.348 117.701 287.683 119.217 287.06 120.751C286.13 123.043 285.281 125.364 284.523 127.72C284.044 129.206 283.588 130.698 283.254 132.226C283.088 132.987 282.955 133.756 282.827 134.526C282.723 135.154 282.772 135.789 282.661 136.414C282.735 137.301 282.719 138.201 283.081 139.043C283.169 139.25 283.265 139.448 283.421 139.615C283.552 139.757 283.716 139.798 283.877 139.718C284.057 139.627 284.229 139.509 284.379 139.375C284.799 138.999 285.128 138.547 285.413 138.063C285.619 137.71 285.815 137.35 286.009 136.99C286.572 135.94 287.133 134.889 287.691 133.837C287.815 133.604 287.96 133.392 288.166 133.224C288.553 132.91 288.981 132.873 289.421 133.075C289.859 133.274 290.123 133.613 290.141 134.116C290.15 134.38 290.113 134.63 289.984 134.87C289.222 136.277 288.467 137.689 287.706 139.097C287.26 139.924 286.671 140.639 285.988 141.283C285.386 141.851 284.679 142.195 283.857 142.29C283.501 142.331 283.153 142.253 282.82 142.132C282.191 141.904 281.681 141.52 281.292 140.965C280.835 140.312 280.551 139.586 280.396 138.817C280.169 137.683 280.079 136.536 280.232 135.379C280.288 134.955 280.29 134.528 280.354 134.103C280.494 133.183 280.676 132.273 280.877 131.367C281.328 129.33 281.993 127.356 282.656 125.384C283.473 122.95 284.408 120.56 285.402 118.194C285.864 117.097 286.334 116.004 286.813 114.876" fill="white"/>
<path d="M422.347 96.1472C422.379 97.8586 420.988 99.3358 419.284 99.4019C417.49 99.4724 415.968 97.9605 416.001 96.1386C416.032 94.4153 417.468 92.9944 419.175 93.0009C420.88 93.0074 422.316 94.4305 422.347 96.1472Z" fill="#F99F00"/>
<path d="M6.34734 75.1472C6.37877 76.8586 4.98823 78.3358 3.28448 78.4019C1.48968 78.4724 -0.0320029 76.9605 0.00051164 75.1386C0.0319423 73.4153 1.468 71.9944 3.17501 72.0009C4.87985 72.0074 6.31591 73.4305 6.34734 75.1472Z" fill="#F99F00"/>
<path d="M362.421 142.337C363.197 140.25 363.894 138.178 364.74 136.17C365.414 134.569 366.176 132.85 368.33 133.01C369.664 133.109 370.621 134.816 370.758 137.183C370.853 138.796 370.821 140.422 370.769 142.04C370.725 143.408 371.293 144.182 372.605 144.549C374.37 145.043 376.129 145.579 377.847 146.218C379.053 146.666 380.272 147.341 379.947 148.945C379.667 150.332 378.452 150.534 377.261 150.636C375.434 150.792 373.6 151.167 371.786 151.074C369.609 150.964 368.668 152.021 368.153 153.921C367.882 154.921 367.488 155.894 367.067 156.841C366.391 158.36 365.277 159.248 363.534 158.939C361.882 158.644 361.334 157.388 361.225 155.91C361.132 154.645 361.129 153.365 361.206 152.099C361.307 150.466 360.733 149.482 359.074 149.096C357.968 148.838 356.786 148.515 355.892 147.863C355.055 147.254 354.099 146.221 354.01 145.293C353.865 143.798 355.277 143.228 356.577 143.025C358.376 142.745 360.194 142.592 362.421 142.337Z" fill="#3973BB"/>
<path d="M128.11 112.44C127.805 112.011 127.57 111.657 127.313 111.322C126.517 110.285 125.8 109.166 124.879 108.253C124.232 107.611 123.354 107.108 122.488 106.799C121.077 106.295 119.941 107.215 120.003 108.713C120.027 109.288 120.158 109.887 120.376 110.419C121.444 113.03 122.875 115.439 124.744 117.553C127.142 120.264 129.489 120.214 131.747 117.381C132.957 115.864 134.12 114.291 135.115 112.63C135.799 111.489 136.277 110.185 136.619 108.893C136.813 108.158 136.68 107.263 136.459 106.509C136.081 105.221 134.88 104.662 133.661 105.209C131.506 106.174 129.714 107.615 128.713 109.812C128.375 110.553 128.331 111.429 128.11 112.44Z" fill="#F99F00"/>
<path d="M479.11 70.4401C478.804 70.0108 478.57 69.6572 478.312 69.3216C477.516 68.2846 476.799 67.1661 475.879 66.2533C475.232 65.6108 474.354 65.1081 473.488 64.7986C472.077 64.2947 470.94 65.215 471.002 66.7131C471.027 67.2879 471.158 67.8869 471.375 68.4194C472.443 71.0304 473.874 73.4389 475.744 75.5534C478.141 78.2645 480.489 78.2135 482.747 75.3807C483.956 73.8639 485.12 72.2906 486.115 70.6303C486.799 69.4888 487.277 68.1845 487.619 66.8927C487.813 66.1582 487.68 65.2628 487.459 64.5091C487.081 63.221 485.88 62.6617 484.66 63.2085C482.505 64.1742 480.714 65.6151 479.712 67.8117C479.374 68.553 479.331 69.4291 479.11 70.4401Z" fill="#F28CA7"/>
<path d="M90.337 48.3625C92.3957 47.8198 94.1717 47.3438 95.9503 46.8851C96.513 46.7411 97.0823 46.5945 97.6583 46.5331C98.801 46.4105 99.825 46.6865 100.356 47.8091C100.902 48.9678 100.402 49.9811 99.4943 50.6331C97.7623 51.8731 96.033 53.2185 94.0997 54.0518C91.4917 55.1771 91.1984 55.4358 91.5784 58.4011C91.7757 59.9345 91.769 61.5025 91.7517 63.0531C91.7384 64.3105 91.2264 65.4238 89.9024 65.7025C88.5024 65.9985 87.7503 65.0198 87.325 63.8531C86.6303 61.9478 86.0143 60.0131 85.3503 58.0491C83.805 58.0491 82.3637 58.1518 80.9477 58.0051C80.261 57.9331 79.2743 57.5385 79.0623 57.0251C78.8463 56.5038 79.225 55.4731 79.685 54.9931C80.5424 54.0971 81.5797 53.3145 82.669 52.7105C83.973 51.9865 84.2757 51.0451 84.2304 49.6091C84.161 47.3945 84.2997 45.1558 84.589 42.9571C84.681 42.2545 85.529 41.6505 86.0317 40.9998C86.6797 41.5078 87.5917 41.8838 87.9263 42.5505C88.833 44.3518 89.4943 46.2771 90.337 48.3625Z" fill="#F28CA7"/>
<path d="M353.296 41.4533C355.918 43.9231 358.591 46.4415 361.227 48.9241C363.116 47.033 365.113 45.0319 367.059 43.0832C364.742 40.2678 362.372 37.3896 360.179 34.7252C357.896 36.9568 355.607 39.1948 353.296 41.4533ZM361.809 60.168C361.225 59.2641 360.613 58.4882 360.186 57.6188C359.367 55.948 358.715 54.1927 357.882 52.5282C356.128 49.0252 353.388 46.6553 349.599 45.512C348.535 45.1906 347.433 44.8488 346.502 44.2688C344.459 42.9949 344.516 41.1166 346.575 39.8849C347.29 39.4573 348.126 39.2409 348.863 38.8479C350.668 37.8851 352.531 36.9991 354.22 35.857C356.779 34.126 358.567 31.8048 358.939 28.5898C359 28.0688 359.327 27.5784 359.56 27.001C361.093 27.129 361.738 28.0329 362.047 29.294C363.528 35.3551 367.286 39.456 372.915 41.9604C373.964 42.4277 374.95 42.991 374.835 44.3917C374.734 45.6439 373.808 46.1547 372.791 46.3929C367.45 47.6412 365.468 51.7114 364.267 56.4384C363.925 57.7904 363.807 59.2333 361.809 60.168" fill="#429487"/>
<path d="M58.8373 138.169C60.6824 139.907 62.5635 141.679 64.4185 143.426C65.7474 142.095 67.1528 140.687 68.5222 139.316C66.8916 137.335 65.224 135.31 63.6807 133.435C62.0743 135.005 60.4635 136.58 58.8373 138.169ZM64.8276 151.338C64.4167 150.702 63.9861 150.156 63.6861 149.544C63.1095 148.368 62.6509 147.133 62.0644 145.962C60.8302 143.497 58.9022 141.83 56.2364 141.025C55.4877 140.799 54.712 140.558 54.0571 140.15C52.6192 139.254 52.6597 137.932 54.1084 137.066C54.6111 136.765 55.1994 136.612 55.7184 136.336C56.9887 135.658 58.2995 135.035 59.4878 134.231C61.2887 133.013 62.5464 131.38 62.8086 129.118C62.8509 128.751 63.0816 128.406 63.2455 128C64.3239 128.09 64.778 128.726 64.9951 129.613C66.0375 133.878 68.6817 136.764 72.643 138.526C73.3809 138.855 74.0746 139.251 73.9935 140.237C73.9224 141.118 73.271 141.477 72.5557 141.645C68.797 142.523 67.4024 145.387 66.5573 148.714C66.3168 149.665 66.2339 150.68 64.8276 151.338" fill="#8E6CCE"/>
<path d="M145.737 35.3414C145.775 37.9512 143.934 39.85 141.371 39.8457C138.948 39.8403 137.051 37.9664 137.001 35.5321C136.952 33.0946 139 31.0083 141.451 30.9996C143.886 30.992 145.702 32.8302 145.737 35.3414Z" fill="#3973BB"/>
</svg>
